:SAMPLES-PER-SECOND 30
:FULLY-SPECIFIED
:DEGREES
101
root  -72.681 40.3832 3.4779 27.1019 60.021 10.3089
RightUpLeg  2.87035 -12.7245 -13.1503
RightLeg  -1.43247 -19.8044 6.72494
RightFoot  -10.1054 -0.249104 16.4899
RightToes  0.000482159 0.542163 -0.142577
Spine  35.4554 -3.58419 19.7131
Spine1  7.19956 5.62414 -10.1636
HEad  -26.2186 -27.7853 7.83115
LeftShoulder1  8.51215 -12.8333 -45.419
LeftArm  -19.6443 23.4904 -25.4403
LeftForeArm  22.8394 -18.5719 -3.05118
LeftHand  -0.25398 0.0180481 5.50724
RightShoulder  1.97102 7.00105 11.702
RightArm  16.4423 57.4745 78.7213
RightForeArm  19.077 6.0964 8.30392
RightHand  -0.862536 2.01735 -13.7267
LeftUpLeg  -46.8161 30.8651 -29.551
LeftLeg  31.3554 2.00267 1.65447
LeftFoot  -8.42434 0.00198637 1.95543
LeftToes  1.06248e-005 4.65856e-005 -8.18499e-006
102
root  -72.0664 40.158 4.402 31.9239 64.9245 13.4449
RightUpLeg  4.02644 -12.6097 -12.2697
RightLeg  -1.11149 -19.5293 7.273
RightFoot  -10.3224 -0.223412 17.081
RightToes  0.000482159 0.542163 -0.142577
Spine  31.4112 -2.3029 21.8964
Spine1  7.35536 6.88154 -10.6527
HEad  -26.1102 -26.5841 5.68147
LeftShoulder1  8.65535 -12.9741 -45.7988
LeftArm  -17.3045 27.4306 -27.7328
LeftForeArm  13.8779 -7.09574 -2.52994
LeftHand  -0.25398 0.0180481 5.50724
RightShoulder  2.55054 7.85463 15.7366
RightArm  24.3493 48.6314 84.4121
RightForeArm  17.8546 5.89219 10.7943
RightHand  -0.713916 0.671616 -13.7833
LeftUpLeg  -44.5982 31.8695 -34.2898
LeftLeg  25.6037 2.99764 1.93
LeftFoot  -9.34091 0.0150422 2.31468
LeftToes  1.06248e-005 4.65856e-005 -8.18499e-006
103
root  -71.1744 39.7273 5.2668 35.9568 69.1497 16.2273
RightUpLeg  5.51997 -13.999 -12.9015
RightLeg  1.51831 -11.0712 8.10875
RightFoot  -12.1606 0.0733262 19.8379
RightToes  0.000482159 0.542163 -0.142577
Spine  27.1407 -0.537626 23.432
Spine1  7.7186 8.30142 -11.0329
HEad  -24.1051 -25.6215 3.3685
LeftShoulder1  9.01183 -13.3917 -46.5346
LeftArm  -13.3472 33.1707 -27.7568
LeftForeArm  14.4203 -0.232799 -2.92611
LeftHand  -0.25398 0.0180481 5.50724
RightShoulder  3.305 8.85775 20.327
RightArm  37.063 40.8547 87.8783
RightForeArm  23.6091 7.14831 12.4734
RightHand  -0.420659 -0.849833 -10.0695
LeftUpLeg  -40.2599 32.0075 -35.1769
LeftLeg  20.6965 2.30265 1.2824
LeftFoot  -11.1764 0.0725854 5.79896
LeftToes  1.06248e-005 4.65856e-005 -8.18499e-006
104
root  -70.2384 39.1614 6.13028 39.3522 72.2793 19.4261
RightUpLeg  7.81596 -17.9457 -15.2183
RightLeg  5.2588 9.40192 9.3948
RightFoot  -13.3854 0.365306 25.9948
RightToes  0.000482159 0.542163 -0.142577
Spine  24.3789 1.32945 22.6955
Spine1  8.00646 9.56804 -11.265
HEad  -22.5869 -24.6998 2.47734
LeftShoulder1  9.04111 -13.515 -46.3397
LeftArm  -11.5185 40.6427 -28.303
LeftForeArm  22.8478 -0.0896548 -3.09868
LeftHand  -0.25398 0.0180481 5.50724
RightShoulder  4.27709 10.3662 24.7067
RightArm  61.6935 33.4593 90.0319
RightForeArm  28.0004 15.2427 9.78004
RightHand  -0.0399289 -1.55435 -1.39491
LeftUpLeg  -36.4637 30.4621 -32.5484
LeftLeg  20.8226 1.67793 1.00637
LeftFoot  -15.6768 0.435713 9.15667
LeftToes  1.06248e-005 4.65856e-005 -8.18499e-006
105
root  -69.4311 38.7151 7.01322 45.631 74.8197 27.0057
RightUpLeg  8.50596 -22.7129 -18.0938
RightLeg  14.1317 32.5011 11.5416
RightFoot  -10.7118 -0.262538 31.961
RightToes  0.000482159 0.542163 -0.142577
Spine  23.6925 2.51997 20.3285
Spine1  8.58474 10.3373 -12.0145
HEad  -23.3535 -24.792 2.72514
LeftShoulder1  8.76834 -13.4599 -45.0457
LeftArm  -12.7981 46.4674 -30.0658
LeftForeArm  27.092 -1.83083 -2.5179
LeftHand  -0.25398 0.0180481 5.50724
RightShoulder  4.9638 11.5197 27.0158
RightArm  78.8793 27.4135 90.3977
RightForeArm  31.3124 27.0968 3.44244
RightHand  0.219995 -0.0309124 4.82595
LeftUpLeg  -33.768 28.0465 -29.1172
LeftLeg  25.0791 2.20675 1.48607
LeftFoot  -20.3371 0.812927 8.86091
LeftToes  1.06248e-005 4.65856e-005 -8.18499e-006
106
root  -68.6774 38.5201 7.86042 58.3348 77.0395 41.9399
RightUpLeg  6.52441 -16.6723 -19.5295
RightLeg  27.7273 33.4595 16.7443
RightFoot  -4.89656 -2.0043 34.1076
RightToes  0.000482159 0.542163 -0.142577
Spine  24.1362 2.76421 18.3784
Spine1  9.37139 10.5159 -13.4206
HEad  -25.0328 -25.4975 2.69998
LeftShoulder1  8.57034 -13.4995 -43.8735
LeftArm  -14.8027 48.5771 -31.1341
LeftForeArm  22.2792 -1.7858 -1.84202
LeftHand  -0.25398 0.0180481 5.50724
RightShoulder  4.97227 11.557 26.9629
RightArm  71.1345 24.3355 89.8537
RightForeArm  39.471 36.2045 5.86211
RightHand  0.228882 0.609658 4.44378
LeftUpLeg  -30.4396 26.3046 -26.4687
LeftLeg  28.5861 2.17441 1.64616
LeftFoot  -22.1427 0.736171 6.32739
LeftToes  1.06248e-005 4.65856e-005 -8.18499e-006
107
root  -67.8045 38.5231 8.61005 76.7916 78.4743 61.9105
RightUpLeg  2.80222 -9.31086 -21.3743
RightLeg  39.877 20.4995 17.068
RightFoot  0.930808 -3.59617 32.8345
RightToes  0.000482159 0.542163 -0.142577
Spine  23.6187 2.54902 17.24
Spine1  9.82829 10.1064 -14.7601
HEad  -24.7248 -24.7358 1.4429
LeftShoulder1  8.43968 -13.3547 -43.5595
LeftArm  -15.4467 47.9608 -30.9491
LeftForeArm  17.7261 -1.08877 -1.60019
LeftHand  -0.25398 0.0180481 5.50724
RightShoulder  4.65898 10.8157 26.4772
RightArm  66.6503 22.552 88.2722
RightForeArm  34.7222 42.5915 7.96288
RightHand  0.198856 1.35716 3.24718
LeftUpLeg  -26.2617 24.7408 -24.3628
LeftLeg  28.8063 1.14245 1.08157
LeftFoot  -22.0516 0.569089 4.65237
LeftToes  1.06248e-005 4.65856e-005 -8.18499e-006
108
root  -66.704 38.7721 9.27814 92.9699 79.6237 78.1254
RightUpLeg  -2.67072 -6.05783 -22.8266
RightLeg  49.1078 9.857 11.7962
RightFoot  4.4203 -3.77725 26.9707
RightToes  0.000482159 0.542163 -0.142577
Spine  21.9589 2.29867 16.8619
Spine1  9.02182 9.42869 -15.3785
HEad  -22.5753 -22.0512 0.0660765
LeftShoulder1  8.13365 -12.7024 -43.6741
LeftArm  -15.2267 46.1922 -31.2315
LeftForeArm  20.2961 -1.64479 -1.84978
LeftHand  -0.25398 0.0180481 5.50724
RightShoulder  4.53364 10.2213 26.9903
RightArm  62.8423 21.5952 84.3924
RightForeArm  35.1594 46.6091 9.31919
RightHand  0.333371 1.1581 5.91738
LeftUpLeg  -22.096 23.1127 -21.4227
LeftLeg  25.9801 -0.00682303 0.322754
LeftFoot  -21.8173 0.483161 3.84436
LeftToes  1.06248e-005 4.65856e-005 -8.18499e-006
109
root  -65.4591 39.2072 9.90619 105.597 81.054 90.0887
RightUpLeg  -9.05471 -4.95338 -23.6295
RightLeg  53.624 5.09295 7.10134
RightFoot  3.91845 -2.56558 19.0628
RightToes  0.000482159 0.542163 -0.142577
Spine  20.2498 2.13743 16.6047
Spine1  7.33982 8.68689 -15.1402
HEad  -21.0558 -19.231 0.0382113
LeftShoulder1  7.77508 -11.9511 -43.7813
LeftArm  -15.7597 43.6188 -32.6778
LeftForeArm  24.7545 -3.07701 -2.05187
LeftHand  -0.25398 0.0180481 5.50724
RightShoulder  4.60963 10.0347 28.039
RightArm  58.9444 21.281 78.4537
RightForeArm  40.1205 48.7972 9.79545
RightHand  0.343292 -0.247242 7.66758
LeftUpLeg  -17.9752 19.1725 -16.9374
LeftLeg  21.5609 2.09539 -0.265764
LeftFoot  -21.1424 0.317282 2.18751
LeftToes  1.06248e-005 4.65856e-005 -8.18499e-006
110
root  -64.2171 39.6567 10.5387 116.368 82.5792 100.838
RightUpLeg  -14.6658 -6.50214 -24.0453
RightLeg  52.5115 2.65042 3.38552
RightFoot  1.03852 -1.54062 14.2749
RightToes  0.000482159 0.542163 -0.142577
Spine  19.7491 1.96153 16.2228
Spine1  5.73899 8.04296 -14.4201
HEad  -20.7209 -17.1514 0.666968
LeftShoulder1  7.71179 -11.7608 -43.9739
LeftArm  -17.1576 39.8401 -34.2355
LeftForeArm  24.5699 -4.04482 -1.98609
LeftHand  -0.25398 0.0180481 5.50724
RightShoulder  4.66269 9.95403 28.6544
RightArm  55.0062 21.6559 72.2042
RightForeArm  37.7686 47.3824 9.44368
RightHand  0.0963171 -0.881105 3.08884
LeftUpLeg  -13.1502 10.023 -10.8983
LeftLeg  16.7302 10.7352 -1.15914
LeftFoot  -19.409 0.116886 0.00440896
LeftToes  1.06248e-005 4.65856e-005 -8.18499e-006
111
root  -62.9987 39.9379 11.201 128.492 84.0154 113.811
RightUpLeg  -18.9752 -10.7569 -23.3168
RightLeg  47.0771 -0.566919 -0.917721
RightFoot  -1.29052 -1.16462 13.1163
RightToes  0.000482159 0.542163 -0.142577
Spine  19.9615 1.62523 15.6145
Spine1  4.79836 7.33976 -13.476
HEad  -20.3097 -14.5099 0.600943
LeftShoulder1  7.88754 -12.0628 -44.1129
LeftArm  -17.6921 35.02 -34.9148
LeftForeArm  23.1185 -4.97384 -2.20445
LeftHand  -0.25398 0.0180481 5.50724
RightShoulder  4.66473 9.9525 28.6746
RightArm  51.7294 22.7362 67.2088
RightForeArm  27.8204 41.1092 7.99009
RightHand  -0.15789 0.107262 -3.42577
LeftUpLeg  -8.3677 3.21966 -6.36606
LeftLeg  12.4962 17.2312 -1.84619
LeftFoot  -17.7087 0.0435126 -1.10304
LeftToes  1.06248e-005 4.65856e-005 -8.18499e-006
112
root  -61.7386 39.9966 11.9051 144.898 85.1125 131.232
RightUpLeg  -22.7012 -16.3937 -20.8301
RightLeg  38.8157 -3.59451 -3.40294
RightFoot  -1.84852 -1.0606 12.5783
RightToes  0.000482159 0.542163 -0.142577
Spine  19.8064 1.08608 14.5737
Spine1  4.31627 6.31353 -12.3389
HEad  -19.2145 -10.5083 -0.0983872
LeftShoulder1  7.99287 -12.3175 -43.9765
LeftArm  -16.31 29.9352 -34.288
LeftForeArm  26.673 -7.32904 -3.03553
LeftHand  -0.25398 0.0180481 5.50724
RightShoulder  4.73885 10.1502 28.7139
RightArm  50.025 24.3344 63.6173
RightForeArm  20.1456 31.654 5.65295
RightHand  -0.284889 0.843765 -5.44421
LeftUpLeg  -4.14494 2.4832 -3.20607
LeftLeg  9.81795 17.3087 -1.92275
LeftFoot  -17.3499 0.011321 -1.74871
LeftToes  1.06248e-005 4.65856e-005 -8.18499e-006
113
root  -60.404 39.8637 12.6713 161.885 85.4031 149.052
RightUpLeg  -26.2773 -21.7166 -17.1796
RightLeg  28.7713 -3.77403 -2.60385
RightFoot  -1.634 -1.12776 13.103
RightToes  0.000482159 0.542163 -0.142577
Spine  19.5155 0.421453 12.9094
Spine1  3.58346 5.01309 -11.1531
HEad  -17.8202 -5.86853 -0.82296
LeftShoulder1  7.99088 -12.3786 -43.7871
LeftArm  -13.8437 25.2424 -32.2889
LeftForeArm  33.1335 -11.8524 -3.68672
LeftHand  -0.25398 0.0180481 5.50724
RightShoulder  4.8555 10.2327 29.3719
RightArm  43.8482 26.0314 60.1291
RightForeArm  21.282 21.3231 4.85132
RightHand  -0.223481 -0.306753 -5.14711
LeftUpLeg  -0.801272 3.95591 -0.252338
LeftLeg  8.9437 14.9536 -1.80369
LeftFoot  -18.0458 -0.0960493 -3.47365
LeftToes  1.06248e-005 4.65856e-005 -8.18499e-006
114
root  -59.0027 39.608 13.4988 173.944 84.7599 162.249
RightUpLeg  -28.8064 -24.9298 -13.7195
RightLeg  18.2483 -2.61303 -0.747534
RightFoot  -2.05995 -1.14207 13.8067
RightToes  0.000482159 0.542163 -0.142577
Spine  20.1982 -0.320456 11.1624
Spine1  2.19428 3.68286 -9.89153
HEad  -16.6827 -1.13883 -1.68724
LeftShoulder1  7.98905 -12.4054 -43.6991
LeftArm  -12.0776 21.3725 -29.5726
LeftForeArm  36.4549 -18.9479 -3.34628
LeftHand  -0.25398 0.0180481 5.50724
RightShoulder  4.83444 9.72702 30.5902
RightArm  19.5097 27.084 54.9627
RightForeArm  35.4645 11.8295 8.27329
RightHand  -0.294134 -1.12356 -7.64684
LeftUpLeg  2.52247 5.32216 2.75927
LeftLeg  8.96679 12.5245 -1.73404
LeftFoot  -18.6005 -0.244803 -5.62241
LeftToes  1.06248e-005 4.65856e-005 -8.18499e-006
